# xmcd
#
# Track frame offsets: 
#        187
#        14507
#        28102
#        46692
#        62742
#        86227
#        101270
#        118665
#        135547
#        150782
#
# Disc length: 2266 seconds
#
# Revision: 1
# Processed by: cddbd v1.5.2PL0 Copyright (c) Steve Scherf et al.
# Submitted via: ExactAudioCopy v1.0b3
#
DISCID=7308d80a
DTITLE=B.B.クィーンズ - We are B.B.クィーンズ BVCR-2301
DYEAR=1900
DGENRE=Vocal
TTITLE0=おどるポンポコリン 
TTITLE1=世界の国からこんにちは(’90) 
TTITLE2=星の物語
TTITLE3=ゆめいっぱい(B.B.クイーンズ・ヴァージョン)
TTITLE4=ぼく イカレポンチだから 
TTITLE5=ウィ・アー,B.B.クィーンズ 
TTITLE6=上を向いて歩こう 
TTITLE7=ABCのうた 
TTITLE8=赤とんぼ 
TTITLE9=かえるの合唱 
EXTD=
EXTT0=
EXTT1=
EXTT2=
EXTT3=
EXTT4=
EXTT5=
EXTT6=
EXTT7=
EXTT8=
EXTT9=
PLAYORDER=
